<?xml version="1.0" encoding="utf-8"?>
<!-- Generator: Adobe Illustrator 24.2.3, SVG Export Plug-In . SVG Version: 6.00 Build 0)  -->
<svg version="1.1" id="Layer_1" xmlns="http://www.w3.org/2000/svg" xmlns:xlink="http://www.w3.org/1999/xlink" x="0px" y="0px"
	 viewBox="0 0 50 50" style="enable-background:new 0 0 50 50;" xml:space="preserve">
<style type="text/css">
	.st0{enable-background:new    ;}
	.st1{fill:#FFFFFF;}
</style>
<g>
	<circle cx="25" cy="25" r="25"/>
</g>
<g class="st0">
	<path class="st1" d="M41.3,15.7l-5.9,20.6h-6.8l-3-10.5c-0.1-0.7-0.3-1.8-0.4-2.3H25c0,0.5-0.2,1.7-0.4,2.3l-3,10.5h-6.8L8.7,15.7
		h6.2l3,12.2c0.3,1.1,0.4,1.9,0.5,2.7h0.1c0.1-0.8,0.3-1.7,0.6-2.7l3.3-12.2h5.3L31,27.8c0.3,1,0.5,2.2,0.6,2.8h0.1
		c0.1-0.6,0.3-1.7,0.6-2.8l2.9-12.1H41.3z"/>
</g>
</svg>
